# xmcd CD database file
#
# Track frame offsets:
#	154
#	108850
#	204172
#	282580
#
# Disc length: 4718 seconds
#
# Revision: 0
# Processed by: cddbd v1.5.2PL0 Copyright (c) Steve Scherf et al.
# Submitted via: CDex 1.70beta2
#
DISCID=31126c04
DTITLE=Mark Nodwell - (Co)Incidents
DYEAR=1999
DGENRE=Jazz
TTITLE0=Laurie's Lake
TTITLE1=The Eyeball Spider's Progress
TTITLE2=The Eagle And The Wolf
TTITLE3=Winter Solstice
EXTD=YEAR: 1999
EXTT0=
EXTT1=
EXTT2=
EXTT3=
PLAYORDER=
